# xmcd
# 
# Track frame offsets:
#     187
#     21855
#     42892
#     62355
# 
# Disc length: 1150
# 
# Revision: 2
# Processed by: cddbd v1.5.2PL0 Copyright (c) Steve Scherf et al.
# Submitted via: fre:ac v1.0.31
# 
DISCID=27047c04
DTITLE=Christopher Williams - Every Little Thing U Do
DYEAR=1993
DGENRE=R&B
TTITLE0=Every Little Thing U Do [Album Version]
TTITLE1=Every Little Thing U Do [DawgHouse Mix]
TTITLE2=Every Little Thing U Do [Radio Mix]
TTITLE3=Every Little Thing U Do [Clark And Tim Flip Da Bass]
EXTD=
EXTT0=
EXTT1=
EXTT2=
EXTT3=
PLAYORDER=
